<?xml version="1.0" encoding="utf-8"?>
<!-- Generator: Adobe Illustrator 22.1.0, SVG Export Plug-In . SVG Version: 6.00 Build 0)  -->
<svg version="1.1" id="Warstwa_1" xmlns="http://www.w3.org/2000/svg" xmlns:xlink="http://www.w3.org/1999/xlink" x="0px" y="0px"
	 viewBox="0 0 100 100" style="enable-background:new 0 0 100 100;" xml:space="preserve">
<style type="text/css">
	.st0{display:none;}
	.st1{display:inline;fill:none;stroke:#000000;stroke-width:3;stroke-miterlimit:10;}
	.st2{fill:#F9F9F9;}
</style>
<g id="Warstwa_1_1_" class="st0">
	
		<image style="display:inline;overflow:visible;enable-background:new    ;" width="695" height="695" xlink:href="67439E5FA0F0F491.png"  transform="matrix(0.1252 0 0 0.1252 6.4832 6.4832)">
	</image>
	<rect x="6.5" y="6.1" class="st1" width="87" height="87"/>
</g>
<g id="Warstwa_2_1_">
	<rect x="-13.3" y="-11.1" class="st2" width="126.6" height="121.9"/>
	<g>
		<path d="M26,61.3c-2.1,3.2-5.4,4.7-9.7,4.7c-3.9,0-7.1-1.4-9.5-4.1c-2.4-2.7-3.5-6-3.5-9.9s1.2-7.2,3.5-9.9
			c2.5-2.7,5.8-4.1,9.8-4.1c4.1,0,7.2,1.7,9.4,4.8V27.5h4v38.1h-4C26,65.6,26,61.3,26,61.3z M16.9,62.4c2.9,0,5.2-1.1,7-3.1
			c1.7-1.9,2.5-4.4,2.5-7.3s-0.8-5.3-2.5-7.3c-1.7-2-4-3.1-7-3.1s-5.2,1.1-7.1,3.1C8.2,46.5,7.3,49,7.3,52s0.8,5.3,2.6,7.3
			C11.6,61.3,14,62.4,16.9,62.4z"/>
		<path d="M49.2,62.4c3.7,0,6.2-1.5,7.9-4.6h4.5c-0.9,2.5-2.5,4.5-4.5,6c-2,1.5-4.7,2.2-7.9,2.2c-4.1,0-7.4-1.4-10-4.1
			c-2.5-2.6-3.8-5.9-3.8-9.9s1.2-7.3,3.5-9.9c2.5-2.7,5.8-4.1,9.9-4.1c4,0,7.3,1.4,9.9,4.1c2.4,2.6,3.5,5.9,3.5,9.9v1.7H39.7
			c0.2,2.5,1.3,4.6,2.9,6.2C44.4,61.6,46.6,62.4,49.2,62.4z M49,41.7c-2.5,0-4.6,0.8-6.2,2.4s-2.6,3.4-2.9,5.8h18.4
			c-0.4-2.4-1.3-4.4-2.9-5.8C53.5,42.5,51.5,41.7,49,41.7z"/>
		<path d="M89.9,38.4L79.3,65.6h-4.7L64,38.4h4.5l8.6,22.8l8.5-22.8H89.9z"/>
		<path d="M96.7,60v5.6h-5.3V60C91.4,60,96.7,60,96.7,60z"/>
	</g>
</g>
</svg>
